<?xml version="1.0" encoding="UTF-8" standalone="no"?>
<svg
   version="1.0"
   width="536.80414pt"
   height="538.93689pt"
   viewBox="0 0 536.80414 538.93689"
   preserveAspectRatio="xMidYMid"
   id="svg87"
   xml:space="preserve"
   sodipodi:docname="favicon.svg"
   inkscape:version="1.3.2 (091e20e, 2023-11-25, custom)"
   xmlns:inkscape="http://www.inkscape.org/namespaces/inkscape"
   xmlns:sodipodi="http://sodipodi.sourceforge.net/DTD/sodipodi-0.dtd"
   xmlns="http://www.w3.org/2000/svg"
   xmlns:svg="http://www.w3.org/2000/svg">
   <style id="style1">
	.favicon-fill { fill: var(--favicon-primary, #000035); }
	.favicon-stroke { stroke: var(--favicon-primary, #000035); }
	</style>
	<sodipodi:namedview
     id="namedview1"
     pagecolor="#ffffff"
     bordercolor="#000000"
     borderopacity="0.25"
     inkscape:showpageshadow="2"
     inkscape:pageopacity="0.0"
     inkscape:pagecheckerboard="0"
     inkscape:deskcolor="#d1d1d1"
     inkscape:document-units="pt"
     inkscape:zoom="1.1313941"
     inkscape:cx="357.52353"
     inkscape:cy="359.29126"
     inkscape:window-width="1920"
     inkscape:window-height="1009"
     inkscape:window-x="-8"
     inkscape:window-y="-8"
     inkscape:window-maximized="1"
     inkscape:current-layer="svg87" /><defs
     id="defs87" /><g
     transform="matrix(0.1,0,0,-0.1,-244.8469,784.16868)"
     fill="#000000"
     stroke="none"
     id="g87"
     style=""><path
       d="m 5081,6849 c -54,-11 -146,-61 -380,-209 -102,-64 -233,-146 -291,-182 -497,-308 -974,-606 -1015,-633 -61,-42 -85,-80 -85,-137 0,-79 57,-138 135,-138 20,0 46,5 58,11 20,11 194,120 357,224 189,121 882,553 1128,704 74,44 141,81 150,81 8,0 43,-17 76,-39 34,-21 171,-106 306,-189 320,-195 585,-361 905,-566 347,-222 354,-226 395,-226 70,0 140,69 140,140 0,41 -26,87 -66,119 -27,22 -205,134 -411,260 l -92,56 -3,172 -3,171 -30,44 c -17,24 -51,54 -75,68 -38,21 -57,24 -126,23 -119,-2 -188,-43 -224,-134 -7,-19 -14,-35 -16,-37 -1,-2 -109,63 -240,144 -393,243 -411,254 -471,269 -63,16 -60,16 -122,4 z"
       id="path13"
       style=""
       class="favicon-fill" /><path
       d="m 5025,6172 c -49,-28 -90,-53 -500,-312 -115,-73 -282,-178 -370,-233 -88,-55 -221,-138 -295,-185 -74,-47 -205,-128 -290,-180 -201,-123 -216,-135 -235,-186 -41,-108 51,-214 168,-192 17,3 70,28 117,56 l 85,50 5,-637 c 4,-571 7,-641 22,-668 21,-38 73,-88 118,-111 34,-18 85,-19 1285,-19 h 1250 l 40,21 c 54,29 94,70 116,119 17,37 19,80 19,673 0,347 3,632 7,632 3,0 39,-20 79,-45 136,-85 184,-91 250,-33 69,61 64,172 -11,228 -11,8 -148,94 -305,191 -157,96 -514,319 -795,494 -280,176 -530,330 -554,342 -64,33 -141,31 -206,-5 z m 460,-509 c 444,-275 694,-432 758,-475 l 57,-39 V 4485 3820 H 5141 c -1047,0 -1159,2 -1165,16 -3,9 -6,305 -6,658 v 643 l 23,20 c 12,12 72,51 132,89 61,37 182,113 270,169 166,106 534,338 664,418 l 75,47 30,-19 c 17,-10 162,-99 321,-198 z"
       id="path14"
       style=""
       class="favicon-fill" /><path
       d="m 5070,5306 c -68,-15 -109,-36 -162,-84 -82,-74 -118,-166 -118,-304 0,-45 -5,-80 -11,-84 -6,-3 -20,-25 -30,-48 -16,-36 -19,-67 -19,-244 0,-253 10,-286 105,-335 38,-19 55,-20 304,-18 280,2 294,4 349,55 52,46 55,64 53,298 -2,214 -7,256 -37,289 -9,10 -15,47 -18,110 -5,114 -29,185 -87,252 -50,58 -113,96 -188,113 -66,16 -69,16 -141,0 z m 160,-178 c 18,-13 47,-40 63,-60 28,-35 30,-44 31,-120 1,-46 -2,-84 -6,-85 -5,-2 -89,-3 -188,-3 h -180 v 73 c 1,141 67,216 191,217 42,0 64,-6 89,-22 z m -13,-463 c 13,-14 23,-37 23,-51 0,-30 -25,-81 -42,-86 -10,-4 -8,-23 6,-84 10,-43 21,-85 23,-91 4,-10 -18,-13 -91,-13 h -96 l 6,28 c 4,15 15,55 24,89 17,61 17,63 -3,80 -46,42 -41,119 11,148 41,23 111,13 139,-20 z"
       id="path15"
       style=""
       class="favicon-fill" /><circle
       style="display:inline;stroke:none;stroke-width:8.85775;stroke-linecap:butt;stroke-linejoin:round;stroke-dasharray:none;stroke-opacity:1"
       id="path91-7-19-5-2"
       cx="465.88116"
       cy="316.6539"
       r="7"
       transform="matrix(9.9999998,0,0,-9.9999998,0,10240)"
       class="favicon-fill" /><circle
       style="display:inline;stroke:none;stroke-width:8.85774;stroke-linecap:butt;stroke-linejoin:round;stroke-dasharray:none;stroke-opacity:1"
       id="path91-7-19-5-3"
       cx="513.44446"
       cy="306.53992"
       r="7"
       transform="matrix(9.9999998,0,0,-9.9999998,0,10240)"
       class="favicon-fill" /><circle
       style="display:inline;stroke:none;stroke-width:8.85774;stroke-linecap:butt;stroke-linejoin:round;stroke-dasharray:none;stroke-opacity:1"
       id="path91-7-19-5-8"
       cx="560.33173"
       cy="316.86206"
       r="7"
       transform="matrix(9.9999998,0,0,-9.9999998,0,10240)"
       class="favicon-fill" /><circle
       style="display:inline;stroke:none;stroke-width:8.85774;stroke-linecap:butt;stroke-linejoin:round;stroke-dasharray:none;stroke-opacity:1"
       id="path91-7-19-5-9"
       cx="466.24896"
       cy="709.38385"
       r="7"
       transform="matrix(9.9999998,0,0,-9.9999998,0,10240)"
       class="favicon-fill" /><circle
       style="display:inline;stroke:none;stroke-width:8.85774;stroke-linecap:butt;stroke-linejoin:round;stroke-dasharray:none;stroke-opacity:1"
       id="path91-7-19-5-9-6"
       cx="513.30292"
       cy="713.78424"
       r="7"
       transform="matrix(9.9999998,0,0,-9.9999998,0,10240)"
       class="favicon-fill-bright  favicon-fill" /><circle
       style="display:inline;stroke:none;stroke-width:8.85774;stroke-linecap:butt;stroke-linejoin:round;stroke-dasharray:none;stroke-opacity:1"
       id="path91-7-19-5-9-0"
       cx="559.96368"
       cy="709.91699"
       r="7"
       transform="matrix(9.9999998,0,0,-9.9999998,0,10240)"
       class="favicon-fill-bright  favicon-fill" /></g><ellipse
     style="stroke-opacity:1;stroke-dasharray:none;stroke-miterlimit:14;stroke-linejoin:round;stroke-linecap:butt;stroke-width:30.6847;fill-opacity:1;fill:none"
     id="path92"
     cx="268.40207"
     cy="269.46844"
     rx="253.05971"
     ry="254.1261"
     class="favicon-stroke" /></svg>
