<?xml version="1.0" encoding="UTF-8" standalone="no"?>
<svg version="1.0" width="1024pt" height="1024pt" viewBox="0 0 1024 1024" preserveAspectRatio="xMidYMid" id="svg87" xml:space="preserve" xmlns="http://www.w3.org/2000/svg" xmlns:svg="http://www.w3.org/2000/svg">
<style id="style1">
	.logo-blue-accent { 
		stroke: var(--logo-blueAccent, #82a4bf);
		fill: var(--logo-blueAccent, #82a4bf);
	}
	.logo-fill { fill: var(--logo-primary, #000035); }
	.logo-stroke { stroke: var(--logo-primary, #000035); }
</style>
<defs id="defs87" />
<g id="g92" style="display:inline">
<path class="logo-blue-accent" style="display:inline;fill-opacity:1;stroke-width:6;stroke-linecap:round;stroke-dasharray:none;stroke-opacity:1" d="m 750.53725,137.10301 h 67.98208" id="path88-69"   />
<path class="logo-blue-accent" style="display:inline;fill-opacity:1;stroke-width:6;stroke-linecap:round;stroke-dasharray:none;stroke-opacity:1" d="m 750.66464,154.05622 h 88.52187" id="path88-8-9"   />
<path class="logo-blue-accent" style="display:inline;fill-opacity:1;stroke-width:6;stroke-linecap:round;stroke-dasharray:none;stroke-opacity:1" d="M 751.28494,188.95363 H 859.09418" id="path88-6-6"   />
<path class="logo-blue-accent" style="display:inline;fill-opacity:1;stroke-width:6;stroke-linecap:round;stroke-dasharray:none;stroke-opacity:1" d="m 749.68672,171.21413 h 35.90813" id="path88-66-5"   />
<path class="logo-blue-accent" style="fill-opacity:1;stroke-width:7.68604;stroke-linecap:butt;stroke-dasharray:none;stroke-opacity:1" d="M 124.37623,248.91689 H 277.4485" id="path88-5-1"   />
<path class="logo-blue-accent" style="fill-opacity:1;stroke-width:7.68604;stroke-linecap:butt;stroke-dasharray:none;stroke-opacity:1" d="M 742.23574,248.91702 H 895.30801" id="path88-5-1-5"   />
<path class="logo-blue-accent" style="fill-opacity:1;stroke-width:9.78481;stroke-linecap:butt;stroke-dasharray:none;stroke-opacity:1" d="M 129.10679,910.52196 H 377.18937" id="path88-5-1-5-7"   />
<path class="logo-blue-accent" style="display:inline;fill-opacity:1;stroke-width:6;stroke-linecap:round;stroke-dasharray:none;stroke-opacity:1" d="m 249,191.45261 h 93.28105" id="path88-6"   />
<path class="logo-blue-accent" style="display:inline;fill-opacity:1;stroke-width:6;stroke-linecap:round;stroke-dasharray:none;stroke-opacity:1" d="m 249,206.43791 h 93.28105" id="path88-5"   />
<path class="logo-blue-accent" style="display:inline;fill-opacity:1;stroke-width:6;stroke-linecap:round;stroke-dasharray:none;stroke-opacity:1" d="m 249,176.37908 h 50.44178" id="path88-66"   />
<path class="logo-blue-accent" style="fill-opacity:1;stroke-width:7;stroke-linecap:round;stroke-dasharray:none;stroke-opacity:1" d="m 256.5,829.43153 h 97.53193" id="path88-8-4"   />
<path class="logo-blue-accent" style="fill-opacity:1;stroke-width:13.7348;stroke-linecap:round;stroke-dasharray:none;stroke-opacity:1" d="M 170.94187,848.25334 H 214.9627" id="path88-8-4-6"   />
<path class="logo-blue-accent" style="display:inline;fill-opacity:1;stroke-width:14.2194;stroke-linecap:round;stroke-dasharray:none;stroke-opacity:1" d="m 225.75266,897.48597 h 47.18185" id="path88-8-4-6-4"   />
<path class="logo-blue-accent" style="fill-opacity:1;stroke-width:7;stroke-linecap:round;stroke-dasharray:none;stroke-opacity:1" d="m 256.5,848.86748 h 97.53193" id="path88-8-4-0"   />
<path class="logo-blue-accent" style="fill-opacity:1;stroke-width:7;stroke-linecap:round;stroke-dasharray:none;stroke-opacity:1" d="m 256.5,869.44996 h 97.53193" id="path88-8-4-8"   />
<rect class="logo-blue-accent" style="fill-opacity:0;stroke-width:7.61789;stroke-linecap:butt;stroke-linejoin:round;stroke-dasharray:none;stroke-opacity:1" id="rect88" width="80.511421" height="41.300808" x="151.27299" y="828.40997"   />
<path class="logo-blue-accent" style="display:inline;fill-opacity:1;stroke-width:7;stroke-linecap:round;stroke-dasharray:none;stroke-opacity:1" d="M 762.50588,828.93421 H 871.49983" id="path88-2"   />
<path class="logo-blue-accent" style="display:inline;fill-opacity:1;stroke-width:7;stroke-linecap:round;stroke-dasharray:none;stroke-opacity:1" d="M 762.5363,848.46191 H 871.4637" id="path88-8-47"   />
<path class="logo-blue-accent" style="display:inline;fill-opacity:1;stroke-width:7;stroke-linecap:round;stroke-dasharray:none;stroke-opacity:1" d="m 762.5,889.49105 h 99.79367" id="path88-6-1"   />
<path class="logo-blue-accent" style="display:inline;fill-opacity:1;stroke-width:7;stroke-linecap:round;stroke-dasharray:none;stroke-opacity:1" d="M 762.69566,869.05323 H 871.30115" id="path88-66-6"   />
<path class="logo-blue-accent" style="display:inline;fill-opacity:1;stroke-width:6;stroke-linecap:round;stroke-dasharray:none;stroke-opacity:1" d="m 249,137.20262 h 93.28105" id="path88"   />
<path class="logo-blue-accent" style="display:inline;fill-opacity:1;stroke-width:6;stroke-linecap:round;stroke-dasharray:none;stroke-opacity:1" d="m 249,155.22222 h 93.28105" id="path88-8"   />
<rect class="logo-blue-accent" style="fill-opacity:0.325328;stroke-width:0;stroke-linecap:butt;stroke-linejoin:round;stroke-miterlimit:14;stroke-dasharray:none;stroke-opacity:1" id="rect92" width="110.90434" height="51.453217" x="457.48035" y="848.04492"   />
<rect class="logo-blue-accent" style="display:inline;fill-opacity:0.325328;stroke-width:0;stroke-linecap:butt;stroke-linejoin:round;stroke-miterlimit:14;stroke-dasharray:none;stroke-opacity:1" id="rect92-0" width="54.91898" height="41.819199" x="486.16455" y="106.19143"   />
<ellipse class="logo-blue-accent" style="display:inline;fill-opacity:1;stroke-width:16.2756;stroke-linecap:butt;stroke-linejoin:round;stroke-miterlimit:14;stroke-dasharray:none;stroke-opacity:1" id="path92" cx="194.44395" cy="171.26917" rx="24.391407" ry="14.614408" />
</g>
<g transform="matrix(0.1,0,0,-0.1,0,1024)" fill="#000000" stroke="none" id="g87" style="display:inline;fill-opacity:1">
<path class="logo-fill"   d="m 4415,9572 c -61,-33 -109,-101 -125,-176 -7,-36 -10,-215 -8,-557 l 3,-504 27,-52 c 15,-28 43,-63 61,-77 76,-58 50,-56 756,-56 614,0 652,1 693,19 54,23 91,62 118,123 20,46 21,64 23,580 2,522 2,534 -19,578 -30,64 -67,105 -119,129 -44,21 -54,21 -702,21 h -658 z m 1336,-181 29,-29 v -487 c 0,-535 2,-522 -62,-544 -21,-7 -222,-11 -605,-11 h -575 l -34,34 -34,34 v 485 485 l 26,31 26,31 h 600 600 z" id="path1" style="fill-opacity:1"   />
<path class="logo-fill" d="m 5133,9376 c -52,-25 -77,-44 -105,-84 -14,-21 -17,-22 -58,-7 -53,19 -88,19 -131,1 -42,-17 -63,-40 -83,-88 -13,-31 -21,-37 -58,-43 -106,-18 -178,-106 -178,-218 0,-74 32,-133 96,-174 l 49,-33 h 458 c 430,0 460,1 495,19 64,33 100,86 109,160 12,101 -53,196 -155,226 -57,17 -57,17 -75,75 -14,43 -31,69 -70,107 -89,86 -192,106 -294,59 z m 119,-270 123,-65 3,-126 3,-127 -28,6 c -15,4 -65,23 -110,43 l -83,36 v 53 c 0,30 4,54 9,54 5,0 28,-9 52,-20 55,-25 69,-25 69,0 0,13 -18,30 -57,52 -109,63 -103,62 -187,15 -61,-33 -76,-47 -76,-65 0,-20 4,-22 23,-16 12,3 34,13 49,20 43,22 48,18 48,-38 v -53 l -83,-37 c -45,-20 -92,-40 -105,-43 l -23,-7 3,128 3,127 120,63 c 66,35 121,63 122,63 1,1 57,-28 125,-63 z" id="path2" style="fill-opacity:1"   />
<path class="logo-stroke logo-fill" style="display:inline;fill-opacity:1;stroke-width:13.139;stroke-linecap:round;stroke-dasharray:none;stroke-opacity:1" d="m 176.83874,851.72823 h 40.28508" id="path88-8-4-6-0" transform="matrix(9.9999998,0,0,-9.9999998,0,10240)" />
<path class="logo-fill" d="m 4540,8581 c 0,-53 13,-56 242,-53 l 208,2 v -50 c 0,-33 -4,-50 -12,-51 -7,-1 -17,-2 -23,-4 -5,-1 -20,-3 -31,-3 -13,-1 -24,-11 -27,-24 -12,-45 2,-48 222,-48 113,0 212,4 219,9 8,4 12,19 10,32 -2,20 -10,25 -43,29 -40,5 -40,5 -43,52 l -3,47 214,3 c 195,3 217,5 236,22 12,11 21,30 21,43 v 23 h -595 -595 z" id="path3" style="fill-opacity:1"   />
<path class="logo-fill" d="m 1255,9196 c -64,-29 -128,-101 -146,-163 -11,-39 -14,-165 -14,-638 v -590 l 27,-56 c 32,-65 91,-116 156,-135 35,-11 146,-14 514,-14 257,0 468,-3 468,-7 0,-4 -7,-27 -16,-50 -14,-37 -15,-50 -5,-83 20,-68 161,-231 241,-278 44,-26 50,-27 245,-32 l 200,-5 98,-100 c 53,-55 97,-101 97,-103 0,-2 -30,-41 -67,-86 -274,-329 -488,-806 -568,-1261 -26,-147 -37,-411 -26,-612 18,-328 80,-590 210,-898 101,-238 232,-448 428,-684 l 21,-26 -61,-65 c -34,-36 -85,-90 -113,-121 l -51,-56 -169,-5 c -229,-8 -247,-16 -383,-183 -104,-128 -127,-189 -97,-259 9,-21 16,-43 16,-48 0,-5 -184,-8 -462,-7 -317,1 -476,-2 -504,-10 -54,-14 -118,-62 -148,-108 -51,-81 -51,-74 -51,-738 v -620 l 23,-47 c 28,-56 88,-112 151,-142 l 46,-21 h 1210 c 1165,0 1212,1 1260,19 67,26 120,68 153,124 l 27,47 3,505 3,506 -23,41 c -13,23 -84,106 -158,184 -74,78 -136,146 -138,150 -2,5 -26,25 -53,44 -38,29 -61,37 -106,42 -89,7 -89,8 -46,57 21,24 75,87 121,139 l 83,96 37,-24 c 161,-107 406,-223 622,-295 487,-163 1043,-173 1554,-30 223,63 540,206 687,311 15,10 34,19 42,19 21,0 246,-245 235,-256 -3,-2 -34,-9 -69,-15 -65,-10 -119,-37 -142,-68 -6,-10 -77,-87 -157,-170 -80,-84 -154,-169 -165,-189 -19,-35 -20,-59 -23,-511 -2,-401 0,-482 13,-526 20,-70 87,-145 157,-176 l 53,-23 1226,1 h 1226 l 53,29 c 61,33 112,97 132,164 20,68 19,1238 -1,1295 -21,61 -78,132 -129,163 l -47,27 -487,3 c -269,1 -488,5 -488,8 0,3 7,19 16,36 11,22 15,49 12,89 -4,52 -10,65 -64,135 -93,123 -160,190 -207,209 -34,14 -73,17 -202,17 h -160 l -120,124 -120,124 28,32 c 235,270 434,633 531,966 39,136 80,330 96,462 15,128 13,535 -5,675 -36,290 -119,565 -255,840 -108,219 -223,396 -359,555 -17,19 -31,39 -31,43 0,4 45,53 101,107 l 101,100 h 183 c 181,0 183,0 236,28 52,27 158,137 226,235 30,44 34,98 9,147 -9,18 -16,34 -16,36 0,2 219,5 488,6 l 487,3 52,27 c 58,31 94,73 120,139 16,40 18,97 18,634 0,477 -3,598 -14,630 -23,67 -76,131 -133,159 l -52,26 H 7721 c -1142,0 -1229,-1 -1275,-17 -60,-22 -114,-73 -146,-139 l -25,-49 v -490 -490 l 31,-50 c 20,-34 48,-60 84,-82 l 54,-33 h 197 c 130,0 200,-4 204,-11 4,-6 -13,-35 -36,-64 -57,-70 -191,-227 -245,-288 l -43,-48 -39,25 c -76,48 -299,154 -420,200 -488,185 -1101,213 -1622,74 -219,-58 -460,-157 -639,-262 -35,-20 -67,-36 -71,-34 -8,3 -244,285 -293,349 -15,20 -27,41 -27,47 0,9 54,12 193,12 217,0 246,7 305,74 63,72 62,61 62,580 0,526 0,528 -67,605 -19,23 -54,52 -77,64 l -41,22 -1240,2 -1240,3 z m 2447,-166 c 23,-7 48,-24 63,-44 l 25,-33 v -411 c 0,-297 -3,-418 -12,-437 -26,-58 35,-55 -1243,-55 -1278,0 -1217,-3 -1243,55 -9,19 -12,138 -12,428 0,450 1,455 70,489 33,17 110,18 1175,18 756,0 1153,-4 1177,-10 z m 5216,-24 37,-34 3,-418 c 2,-303 -1,-426 -9,-447 -25,-60 41,-57 -1241,-57 -918,0 -1178,3 -1198,13 -14,7 -33,28 -43,47 -16,32 -17,69 -15,442 l 3,406 25,27 c 52,57 -9,54 1243,55 h 1157 z m -6157,-1102 36,-6 -11,-36 c -13,-43 -66,-99 -112,-118 -27,-11 -145,-14 -643,-14 -406,0 -619,4 -638,11 -43,16 -92,69 -104,111 -5,21 -7,43 -4,48 7,11 1413,14 1476,4 z m 6176,0 c 19,-5 21,-11 16,-38 -8,-42 -26,-70 -70,-103 l -36,-28 -624,-3 c -599,-2 -624,-2 -660,17 -46,23 -88,66 -102,104 -16,41 -14,45 22,50 52,6 1430,7 1454,1 z m -5634,-30 c 3,-4 0,-19 -8,-35 -18,-33 -20,-122 -3,-152 6,-12 71,-93 145,-179 73,-86 133,-158 133,-160 0,-2 -24,-22 -52,-43 -29,-22 -99,-82 -157,-132 -57,-51 -107,-93 -112,-93 -4,0 -42,40 -84,89 -135,155 -133,155 -384,161 l -204,5 -69,75 c -72,78 -128,155 -128,176 0,9 48,13 193,16 191,3 192,3 246,33 65,36 109,88 151,178 l 31,67 h 148 c 81,0 150,-3 154,-6 z m 3971,-66 c 38,-85 99,-151 164,-181 42,-20 68,-22 240,-25 147,-3 192,-7 192,-16 0,-34 -156,-217 -204,-240 -27,-13 -69,-16 -205,-16 -219,0 -230,-5 -362,-154 l -93,-105 -78,74 c -44,41 -115,103 -158,137 -44,35 -80,68 -80,73 1,6 21,33 46,60 88,98 211,251 228,282 20,40 21,93 1,140 -8,19 -15,37 -15,39 0,2 65,4 145,4 h 146 z M 5440,7605 c 272,-35 519,-113 773,-242 442,-225 813,-579 1051,-1007 179,-320 275,-631 306,-991 47,-558 -87,-1093 -390,-1559 -179,-274 -455,-553 -725,-731 -111,-73 -354,-197 -500,-254 -443,-176 -1014,-197 -1483,-55 -419,127 -842,395 -1140,724 -337,372 -538,780 -623,1265 -29,164 -36,507 -15,693 51,437 239,887 514,1232 95,119 290,315 402,404 198,157 473,312 711,400 342,126 745,169 1119,121 z M 3339,3153 c 47,-43 101,-90 119,-105 17,-15 32,-30 32,-34 0,-3 -37,-50 -83,-103 -45,-53 -93,-109 -105,-125 -24,-31 -29,-86 -12,-130 l 10,-26 h -461 -461 l 6,32 c 6,32 82,138 163,228 l 43,48 178,4 c 148,3 183,6 211,22 37,20 119,102 204,203 29,35 56,63 61,63 4,0 47,-35 95,-77 z m 3779,-38 c 59,-65 123,-127 150,-142 45,-27 53,-28 202,-31 85,-1 165,-5 177,-7 37,-8 223,-246 223,-286 0,-18 -16,-19 -455,-19 -493,0 -473,-2 -444,52 22,40 1,81 -101,203 -55,66 -99,123 -98,127 3,9 230,216 238,217 3,1 51,-51 108,-114 z M 3364,2473 c 13,-10 67,-60 121,-111 l 99,-92 H 2432 1280 v 30 c 0,62 39,122 109,169 36,23 172,26 1124,24 787,-2 829,-3 851,-20 z m 5481,-5 c 63,-34 115,-113 115,-173 v -25 H 7815 c -630,0 -1145,3 -1145,6 0,3 48,51 106,107 l 107,102 156,5 c 86,3 521,3 966,0 730,-5 813,-7 840,-22 z M 3774,2098 c 14,-19 16,-71 16,-365 V 1390 H 2535 1280 v 365 365 h 1239 1240 z m 5181,0 c 3,-13 5,-222 3,-465 l -3,-443 -30,-30 -30,-30 -1176,-1 c -837,-1 -1183,2 -1197,10 -11,6 -31,26 -44,43 l -23,33 -3,417 c -2,351 0,422 12,452 l 15,36 H 7714 8950 Z M 2004,1294 c 8,-3 17,-21 20,-39 4,-19 22,-55 41,-80 l 35,-45 h -370 -370 l -36,33 c -27,24 -37,43 -41,76 -4,29 -2,45 7,51 14,9 691,13 714,4 z m 1764,0 c 46,-13 14,-105 -50,-144 -31,-19 -51,-20 -428,-20 h -395 l 32,26 c 21,16 40,45 54,84 l 22,60 h 371 c 204,0 381,-3 394,-6 z m -990,-21 c 3,-10 -58,-13 -282,-13 -249,0 -286,2 -286,15 0,13 36,15 282,13 214,-2 282,-6 286,-15 z" id="path4" style="fill-opacity:1"   />
<path class="logo-fill" d="m 1663,8906 c -27,-24 -28,-27 -31,-143 l -4,-118 -39,-38 c -21,-21 -39,-46 -39,-57 0,-10 18,-40 40,-65 l 40,-46 v -107 c 0,-66 5,-117 13,-132 21,-42 63,-49 321,-49 l 238,-1 34,34 34,34 v 116 116 l 33,37 c 52,58 52,68 7,117 l -40,43 v 117 c 0,111 -1,118 -25,141 l -24,25 h -265 -265 z m 504,-42 c 27,-7 35,-39 27,-108 l -7,-54 -79,42 c -72,37 -87,41 -151,41 -63,0 -82,-5 -151,-38 -43,-20 -81,-36 -83,-33 -9,9 -15,78 -9,110 l 7,35 142,4 c 78,1 174,4 212,5 39,1 80,-1 92,-4 z m -70,-195 c 99,-50 153,-96 153,-130 0,-13 -15,-46 -34,-72 -33,-47 -34,-50 -29,-122 3,-40 3,-85 -1,-99 l -6,-26 h -225 -225 l -10,26 c -13,33 -13,97 0,110 8,8 -2,33 -30,82 -62,111 -54,138 67,209 147,86 207,90 340,22 z" id="path5" style="fill-opacity:1"   />
<path class="logo-fill" d="m 1992,8535 -59,-54 -28,29 c -36,37 -74,39 -112,5 l -28,-25 73,-70 c 41,-39 81,-70 90,-70 24,0 192,172 192,197 0,18 -35,43 -60,43 -5,0 -35,-25 -68,-55 z" id="path6" style="fill-opacity:1"   />
<path class="logo-fill" d="m 6667,8893 c -9,-8 -9,-550 -1,-580 l 6,-23 h 309 309 v 101 c 0,100 0,101 -22,95 -13,-3 -26,-6 -29,-6 -3,0 -5,-30 -5,-67 l 1,-68 h -255 -255 l -3,248 -2,247 h 160 160 v 30 30 h -183 c -101,0 -187,-3 -190,-7 z" id="path7" style="fill-opacity:1"   />
<path class="logo-fill" d="m 7135,8731 -170,-170 -50,48 c -62,60 -80,66 -105,41 -35,-35 -25,-60 55,-137 42,-40 86,-75 97,-79 18,-5 53,26 220,193 109,110 198,207 198,216 0,22 -35,57 -57,57 -10,0 -94,-76 -188,-169 z" id="path8" style="fill-opacity:1"   />
<path class="logo-fill" d="m 7237,8632 c -31,-34 -17,-70 22,-57 20,6 40,43 34,63 -7,18 -37,15 -56,-6 z" id="path9" style="fill-opacity:1"   />
<path class="logo-fill" d="m 5081,6849 c -54,-11 -146,-61 -380,-209 -102,-64 -233,-146 -291,-182 -497,-308 -974,-606 -1015,-633 -61,-42 -85,-80 -85,-137 0,-79 57,-138 135,-138 20,0 46,5 58,11 20,11 194,120 357,224 189,121 882,553 1128,704 74,44 141,81 150,81 8,0 43,-17 76,-39 34,-21 171,-106 306,-189 320,-195 585,-361 905,-566 347,-222 354,-226 395,-226 70,0 140,69 140,140 0,41 -26,87 -66,119 -27,22 -205,134 -411,260 l -92,56 -3,172 -3,171 -30,44 c -17,24 -51,54 -75,68 -38,21 -57,24 -126,23 -119,-2 -188,-43 -224,-134 -7,-19 -14,-35 -16,-37 -1,-2 -109,63 -240,144 -393,243 -411,254 -471,269 -63,16 -60,16 -122,4 z" id="path13" style="fill-opacity:1"   />
<path class="logo-fill" d="m 5025,6172 c -49,-28 -90,-53 -500,-312 -115,-73 -282,-178 -370,-233 -88,-55 -221,-138 -295,-185 -74,-47 -205,-128 -290,-180 -201,-123 -216,-135 -235,-186 -41,-108 51,-214 168,-192 17,3 70,28 117,56 l 85,50 5,-637 c 4,-571 7,-641 22,-668 21,-38 73,-88 118,-111 34,-18 85,-19 1285,-19 h 1250 l 40,21 c 54,29 94,70 116,119 17,37 19,80 19,673 0,347 3,632 7,632 3,0 39,-20 79,-45 136,-85 184,-91 250,-33 69,61 64,172 -11,228 -11,8 -148,94 -305,191 -157,96 -514,319 -795,494 -280,176 -530,330 -554,342 -64,33 -141,31 -206,-5 z m 460,-509 c 444,-275 694,-432 758,-475 l 57,-39 V 4485 3820 H 5141 c -1047,0 -1159,2 -1165,16 -3,9 -6,305 -6,658 v 643 l 23,20 c 12,12 72,51 132,89 61,37 182,113 270,169 166,106 534,338 664,418 l 75,47 30,-19 c 17,-10 162,-99 321,-198 z" id="path14" style="fill-opacity:1"   />
<path class="logo-fill" d="m 5070,5306 c -68,-15 -109,-36 -162,-84 -82,-74 -118,-166 -118,-304 0,-45 -5,-80 -11,-84 -6,-3 -20,-25 -30,-48 -16,-36 -19,-67 -19,-244 0,-253 10,-286 105,-335 38,-19 55,-20 304,-18 280,2 294,4 349,55 52,46 55,64 53,298 -2,214 -7,256 -37,289 -9,10 -15,47 -18,110 -5,114 -29,185 -87,252 -50,58 -113,96 -188,113 -66,16 -69,16 -141,0 z m 160,-178 c 18,-13 47,-40 63,-60 28,-35 30,-44 31,-120 1,-46 -2,-84 -6,-85 -5,-2 -89,-3 -188,-3 h -180 v 73 c 1,141 67,216 191,217 42,0 64,-6 89,-22 z m -13,-463 c 13,-14 23,-37 23,-51 0,-30 -25,-81 -42,-86 -10,-4 -8,-23 6,-84 10,-43 21,-85 23,-91 4,-10 -18,-13 -91,-13 h -96 l 6,28 c 4,15 15,55 24,89 17,61 17,63 -3,80 -46,42 -41,119 11,148 41,23 111,13 139,-20 z" id="path15" style="fill-opacity:1"   />
<path class="logo-fill" d="m 6950,1997 c -77,-39 -92,-156 -28,-224 11,-12 17,-26 13,-32 -3,-6 -54,-45 -113,-85 -196,-136 -222,-163 -222,-231 0,-22 9,-54 20,-72 30,-49 66,-63 166,-63 83,0 88,-1 122,-31 88,-78 197,-76 271,5 23,24 31,26 108,26 114,0 162,27 183,101 24,81 -14,128 -217,268 l -121,84 30,38 c 58,72 45,168 -28,215 -21,15 -33,16 -64,7 -22,-5 -45,-6 -52,-2 -18,12 -39,11 -68,-4 z m 134,-102 c 20,-20 7,-55 -27,-75 -25,-14 -28,-13 -54,12 -23,24 -25,30 -15,53 9,20 19,25 46,25 19,0 41,-7 50,-15 z m 37,-261 80,-56 -23,-25 c -13,-14 -49,-48 -81,-75 l -57,-50 -63,54 c -34,30 -72,61 -84,69 -12,9 -19,20 -15,27 9,13 143,111 155,111 4,1 44,-24 88,-55 z" id="path28" style="fill-opacity:1"   />
<path class="logo-fill" d="m 806,7349 c -61,-15 -131,-72 -161,-133 l -25,-52 v -543 -544 l 24,-52 c 25,-55 67,-94 130,-120 32,-14 105,-16 539,-16 h 501 l 54,27 c 59,29 104,86 123,156 6,24 9,234 7,576 l -3,537 -38,57 c -30,45 -51,63 -95,85 l -57,28 -480,2 c -266,1 -497,-3 -519,-8 z m 973,-203 31,-30 v -487 c 0,-344 -3,-495 -11,-513 -26,-55 -39,-57 -508,-54 l -431,3 -27,28 -28,27 -3,488 c -2,473 -2,488 18,520 11,18 30,37 43,42 12,5 209,8 454,7 l 432,-2 z" id="path29" style="fill-opacity:1"   />
<path class="logo-fill" d="m 1248,7136 c -84,-31 -116,-51 -147,-93 -41,-53 -70,-132 -71,-189 0,-49 14,-63 57,-57 30,5 32,8 38,57 7,58 23,106 36,106 5,0 9,7 9,14 0,8 16,27 35,41 28,22 45,27 98,27 40,0 75,-5 95,-16 47,-24 84,-86 96,-164 10,-57 15,-67 33,-70 12,-2 32,2 43,8 20,11 21,17 15,73 -9,75 -45,157 -88,197 -58,55 -189,89 -249,66 z" id="path30" style="fill-opacity:1"   />
<path class="logo-fill" d="m 1034,6722 c -28,-18 -34,-56 -34,-202 0,-146 6,-184 34,-202 6,-4 131,-8 277,-8 h 266 l 22,24 c 21,23 22,31 21,167 -3,165 -11,206 -47,220 -29,11 -523,12 -539,1 z m 323,-104 c 27,-25 29,-59 7,-93 -12,-19 -14,-37 -9,-75 l 7,-50 h -56 c -52,0 -56,2 -55,23 1,12 4,33 8,47 5,16 3,31 -5,41 -64,74 32,174 103,107 z" id="path31" style="fill-opacity:1"   />
<path class="logo-fill" d="m 960,6233 c -54,-20 -66,-78 -25,-119 l 25,-25 361,3 c 344,3 361,4 375,22 8,11 14,35 14,53 0,27 -6,37 -32,53 -31,19 -51,20 -368,19 -184,0 -342,-3 -350,-6 z" id="path32" style="fill-opacity:1"   />
<path class="logo-fill" d="m 8438,7346 c -75,-20 -141,-80 -169,-152 -7,-20 -10,-196 -9,-573 1,-587 0,-574 55,-647 14,-18 50,-45 80,-59 l 55,-27 492,1 c 475,2 493,3 540,23 27,12 64,39 84,61 63,75 64,84 64,652 0,583 1,573 -79,656 -77,79 -81,79 -610,78 -334,0 -469,-4 -503,-13 z m 973,-204 29,-32 v -490 -490 l -29,-32 -29,-33 h -442 -442 l -29,33 -29,32 v 493 c 0,451 2,494 18,514 9,12 28,27 42,32 16,6 187,9 453,8 l 429,-2 z" id="path33" style="fill-opacity:1"   />
<path class="logo-fill" d="m 8808,7050 c -29,-28 -36,-30 -109,-30 -99,0 -119,-15 -119,-87 0,-27 0,-181 -1,-343 -1,-424 -5,-378 37,-396 30,-13 85,-15 325,-12 285,3 289,3 311,26 l 23,23 -3,372 c -3,306 -6,376 -18,395 -13,20 -22,22 -95,22 -76,0 -84,2 -116,30 -32,28 -39,30 -118,30 -81,0 -87,-1 -117,-30 z m 200,-102 c 3,-28 4,-28 83,-28 h 79 v -315 -315 h -245 -245 v 315 314 l 83,3 c 82,3 82,3 85,31 l 3,28 77,-3 c 76,-3 77,-3 80,-30 z" id="path34" style="fill-opacity:1"   />
<path class="logo-fill" d="m 8733,6855 c -3,-9 -3,-118 1,-243 3,-125 6,-237 6,-249 v -23 h 190 190 v 265 265 h -190 c -163,0 -192,-2 -197,-15 z m 307,-85 c 0,-19 -7,-20 -97,-20 -111,0 -143,6 -143,26 0,11 24,14 120,14 113,0 120,-1 120,-20 z m 10,-85 c 0,-12 -20,-15 -120,-15 -100,0 -120,3 -120,15 0,13 20,15 120,15 100,0 120,-2 120,-15 z m -16,-71 c 9,-3 16,-12 16,-20 0,-11 -24,-14 -120,-14 -113,0 -120,1 -120,20 0,19 7,20 104,20 57,0 111,-3 120,-6 z m 6,-104 c 0,-18 -7,-20 -54,-20 -93,0 -175,12 -180,26 -4,11 17,14 114,14 113,0 120,-1 120,-20 z m 0,-87 c 0,-16 -11,-18 -115,-15 -92,3 -115,6 -115,18 0,11 22,14 115,14 103,0 115,-2 115,-17 z" id="path35" style="fill-opacity:1"   />
<path class="logo-fill" d="m 760,5601 c -72,-22 -139,-81 -166,-147 -20,-49 -21,-658 -1,-707 21,-50 69,-99 124,-127 l 48,-25 690,-3 690,-3 62,27 c 70,29 115,73 144,141 17,40 19,73 19,341 1,207 -3,308 -11,332 -26,76 -68,121 -144,156 l -50,24 -690,-1 c -379,0 -701,-4 -715,-8 z m 1391,-200 39,-39 v -260 -261 l -31,-36 c -17,-19 -47,-40 -67,-45 -25,-8 -234,-10 -649,-8 l -613,3 -37,38 -38,37 v 271 271 l 37,34 38,34 h 641 641 z" id="path48" style="fill-opacity:1"   />
<path class="logo-fill" d="m 1041,5328 c -77,-22 -153,-101 -167,-175 -26,-141 50,-256 189,-285 48,-10 64,-9 110,5 79,25 134,69 163,130 43,94 27,184 -46,258 -69,69 -159,93 -249,67 z m 168,-92 c 69,-48 91,-138 52,-214 -40,-79 -165,-112 -243,-64 -41,25 -78,91 -78,139 0,63 50,137 110,162 42,18 115,7 159,-23 z" id="path49" style="fill-opacity:1"   />
<path class="logo-fill" d="m 1053,5200 c -37,-22 -63,-67 -63,-108 0,-37 37,-93 74,-110 39,-19 96,-8 96,18 0,16 -7,20 -30,20 -40,0 -80,39 -80,78 0,51 61,82 90,47 12,-14 15,-14 31,1 59,53 -43,100 -118,54 z" id="path50" style="fill-opacity:1"   />
<path class="logo-fill" d="m 1198,5117 c -44,-12 -47,-25 -15,-55 30,-29 34,-28 57,11 35,57 28,64 -42,44 z" id="path51" style="fill-opacity:1"   />
<path class="logo-fill" d="m 8074,5599 c -65,-19 -127,-71 -159,-133 l -30,-60 v -305 -306 l 27,-51 c 15,-28 44,-66 64,-84 79,-69 34,-65 814,-65 h 705 l 50,28 c 58,32 94,73 118,135 15,36 17,84 17,345 0,272 -2,306 -19,343 -25,55 -76,111 -125,137 -41,22 -42,22 -736,24 -401,1 -708,-2 -726,-8 z m 1365,-173 c 59,-31 61,-40 61,-330 v -265 l -33,-34 c -24,-26 -44,-37 -77,-42 -25,-3 -310,-5 -635,-3 -649,3 -628,1 -671,65 -17,25 -19,52 -22,269 -4,271 1,298 60,334 32,19 49,20 661,20 529,0 632,-2 656,-14 z" id="path56" style="fill-opacity:1"   />
<path class="logo-fill" d="m 817,4319 c -86,-21 -145,-69 -180,-147 -20,-46 -20,-62 -19,-570 2,-497 3,-525 21,-568 23,-52 70,-99 126,-125 37,-17 73,-19 553,-19 490,0 514,1 551,20 51,26 106,91 120,143 9,30 11,189 9,567 l -3,525 -27,45 c -33,57 -72,94 -123,117 -37,16 -81,18 -515,20 -261,1 -492,-3 -513,-8 z m 926,-188 c 10,-1 29,-12 42,-26 l 25,-24 v -484 -484 l -26,-27 -27,-26 H 1314 870 l -32,29 -33,29 v 480 c 0,466 1,481 20,502 11,12 28,25 37,29 13,5 803,7 881,2 z" id="path67" style="fill-opacity:1"   />
<path class="logo-fill" d="m 1270,4033 c -53,-38 -166,-88 -245,-107 -38,-10 -75,-22 -82,-28 -16,-13 -18,-258 -3,-363 21,-145 103,-244 275,-331 l 94,-47 70,30 c 147,65 234,144 288,259 27,57 28,65 31,256 l 3,197 -43,11 c -134,34 -243,80 -304,126 -38,29 -40,29 -84,-3 z m 113,-132 c 43,-21 109,-47 148,-56 l 71,-18 -4,-151 c -3,-129 -6,-158 -25,-198 -30,-66 -95,-127 -183,-172 l -76,-39 -82,43 c -94,49 -152,107 -176,177 -12,34 -16,86 -16,194 v 148 l 43,11 c 56,14 155,55 192,80 17,11 30,20 30,20 0,0 35,-18 78,-39 z" id="path68" style="fill-opacity:1"   />
<path class="logo-fill" d="m 1396,3673 c -50,-49 -94,-92 -98,-98 -4,-5 -32,15 -62,44 -63,59 -91,63 -116,18 l -15,-28 72,-69 c 39,-37 83,-76 97,-85 24,-16 27,-16 53,4 51,40 223,232 223,250 0,20 -30,51 -50,51 -7,0 -54,-39 -104,-87 z" id="path69" style="fill-opacity:1"   />
<path class="logo-fill" d="m 8441,4314 c -72,-19 -124,-63 -158,-132 l -28,-57 -3,-480 c -1,-264 0,-508 4,-543 8,-86 49,-147 124,-184 l 55,-27 500,-2 c 482,-1 502,-1 546,19 25,11 62,39 82,62 68,80 68,77 65,651 l -3,514 -30,55 c -37,67 -98,115 -165,129 -82,18 -921,14 -989,-5 z m 938,-185 c 62,-22 61,-11 61,-534 v -477 l -29,-29 -29,-29 h -441 -441 l -32,29 -33,29 1,476 c 1,527 0,516 67,535 46,13 838,13 876,0 z" id="path70" style="fill-opacity:1"   />
<path class="logo-fill" d="m 8867,3993 c -4,-3 -7,-17 -7,-29 0,-19 -8,-25 -41,-34 -30,-8 -44,-8 -55,1 -17,14 -59,-1 -94,-33 -16,-15 -20,-27 -15,-50 7,-29 6,-29 -27,-23 -31,6 -35,4 -56,-33 -26,-47 -28,-62 -7,-62 31,0 3,-68 -32,-76 -19,-5 -23,-13 -23,-44 0,-51 8,-70 31,-70 30,0 44,-48 22,-72 -16,-18 -16,-21 5,-64 20,-41 25,-45 55,-42 30,3 32,1 29,-28 -3,-32 9,-47 66,-80 27,-16 34,-16 41,-5 8,12 16,12 55,0 40,-12 46,-17 46,-41 0,-32 23,-41 86,-36 34,3 40,7 48,34 7,25 17,33 53,43 34,10 46,11 58,1 20,-17 109,44 100,68 -7,19 -8,22 -6,40 1,9 12,10 39,6 36,-6 38,-5 61,42 l 23,49 -21,14 c -35,23 -21,71 21,71 15,0 18,9 18,60 0,57 -1,60 -24,60 -37,0 -50,52 -19,76 17,12 17,15 -4,58 -13,25 -26,46 -31,46 -4,0 -30,-19 -57,-41 -28,-23 -84,-68 -125,-100 -41,-32 -94,-75 -117,-94 l -41,-36 -46,45 c -25,25 -54,46 -64,46 -22,0 -52,-30 -52,-52 0,-20 147,-158 168,-158 8,0 63,48 122,106 117,115 120,116 120,21 -1,-103 -71,-192 -175,-222 -164,-48 -329,86 -311,253 11,93 56,157 144,202 61,32 162,26 221,-13 48,-32 55,-30 121,37 42,44 43,46 25,61 -11,8 -35,22 -54,31 -30,14 -35,14 -42,1 -8,-13 -14,-13 -53,0 -36,12 -46,21 -51,44 -6,28 -9,29 -64,29 -32,0 -61,-3 -64,-7 z" id="path71" style="fill-opacity:1"   />
<path class="logo-fill" d="m 4477,2159 c -70,-19 -133,-77 -169,-154 l -23,-50 v -565 c 0,-557 0,-566 21,-611 29,-63 65,-101 122,-130 l 47,-24 635,-3 c 562,-2 641,-1 685,14 61,19 108,62 142,129 l 26,50 1,570 1,570 -23,50 c -28,60 -73,110 -127,137 -39,20 -55,21 -677,22 -351,0 -648,-2 -661,-5 z m 1275,-209 39,-44 -3,-516 c -3,-477 -4,-517 -21,-542 -10,-14 -26,-30 -35,-34 -9,-4 -276,-8 -592,-10 -458,-1 -581,1 -607,11 -64,27 -63,20 -63,589 v 514 l 26,31 c 14,17 40,35 57,40 19,6 270,9 596,8 l 563,-2 z" id="path82" style="display:inline;fill-opacity:1"   />
<path class="logo-fill" d="m 4587,1933 c -19,-5 -41,-49 -31,-64 3,-5 247,-9 590,-9 h 585 l -3,27 c -6,53 -9,53 -588,52 -294,-1 -543,-3 -553,-6 z" id="path83" style="display:inline;fill-opacity:1"   />
<path class="logo-fill" d="m 4550,1505 v -285 h 590 590 v 285 285 h -590 -590 z m 427,199 c 158,-91 150,-312 -15,-390 -121,-57 -255,-15 -313,98 -26,50 -26,146 0,197 23,44 91,109 123,115 13,3 32,7 43,10 39,9 121,-6 162,-30 z m 549,-48 c 15,-12 17,-18 8,-33 -9,-15 -30,-19 -135,-23 -170,-8 -253,0 -257,23 -8,42 11,47 192,47 134,0 176,-3 192,-14 z m 4,-131 c 6,-8 9,-23 5,-35 -6,-20 -12,-20 -198,-18 -175,3 -192,5 -195,21 -8,42 11,47 198,47 143,0 180,-3 190,-15 z m -62,-127 c 18,-18 14,-46 -7,-58 -26,-13 -276,-13 -302,0 -24,13 -25,46 -1,59 25,15 295,14 310,-1 z" id="path84" style="display:inline;fill-opacity:1"   />
<path class="logo-fill" d="m 4785,1661 c -22,-10 -49,-28 -59,-39 -29,-33 -46,-112 -34,-159 l 10,-40 29,28 c 17,15 38,31 48,34 15,4 17,14 13,58 -3,43 -1,55 17,71 29,26 81,23 104,-6 15,-17 18,-34 15,-70 -3,-27 -1,-48 3,-48 5,0 25,-14 44,-32 44,-38 55,-29 55,45 0,54 -10,79 -49,120 -52,57 -125,71 -196,38 z" id="path85" style="display:inline;fill-opacity:1"   />
<path class="logo-fill" d="m 4555,1130 c -10,-15 6,-58 23,-65 31,-12 1125,-5 1139,7 8,6 13,23 11,37 l -3,26 -582,2 c -328,1 -585,-2 -588,-7 z" id="path86" style="display:inline;fill-opacity:1"   />
<path class="logo-fill" d="m 4949,934 c -9,-11 -10,-20 -2,-32 9,-15 34,-17 198,-17 164,0 189,2 198,17 8,12 7,21 -2,32 -20,24 -372,24 -392,0 z" id="path87" style="display:inline;fill-opacity:1"   />
<circle class="logo-fill" style="fill-opacity:1;stroke:none;stroke-width:294.617;stroke-linecap:butt;stroke-linejoin:round;stroke-dasharray:none;stroke-opacity:1" id="path89" transform="scale(1,-1)" cy="-2382.5" cx="1487.5" r="67.5"   />
<circle class="logo-fill" style="fill-opacity:1;stroke:none;stroke-width:294.617;stroke-linecap:butt;stroke-linejoin:round;stroke-dasharray:none;stroke-opacity:1" id="path89-3" transform="scale(1,-1)" cy="-2382.5" cx="1687.5" r="67.5"   />
<circle class="logo-fill" style="fill-opacity:1;stroke:none;stroke-width:294.617;stroke-linecap:butt;stroke-linejoin:round;stroke-dasharray:none;stroke-opacity:1" id="path89-2" transform="scale(1,-1)" cy="-2382.5" cx="1887.5" r="67.5"   />
<circle class="logo-fill" style="fill-opacity:1;stroke:none;stroke-width:7.6747;stroke-linecap:butt;stroke-linejoin:round;stroke-dasharray:none;stroke-opacity:1" id="path91" cx="701.61652" cy="787.56506" r="6.0650811" transform="matrix(9.9999998,0,0,-9.9999998,0,10240)"   />
<circle class="logo-fill" style="fill-opacity:1;stroke:none;stroke-width:7.6747;stroke-linecap:butt;stroke-linejoin:round;stroke-dasharray:none;stroke-opacity:1" id="path91-8" cx="720.07709" cy="787.56512" r="6.0650811" transform="matrix(9.9999998,0,0,-9.9999998,0,10240)"   />
<circle class="logo-fill" style="fill-opacity:1;stroke:none;stroke-width:76.747;stroke-linecap:butt;stroke-linejoin:round;stroke-dasharray:none;stroke-opacity:1" id="path91-1" cx="8455.6553" cy="-2364.3491" r="60.65081" transform="matrix(0.99999998,0,0,-0.99999998,0,2.5e-4)"   />
<circle class="logo-fill" style="fill-opacity:1;stroke:none;stroke-width:76.747;stroke-linecap:butt;stroke-linejoin:round;stroke-dasharray:none;stroke-opacity:1" id="path91-2" cx="8618.1504" cy="-2364.3491" r="60.65081" transform="matrix(0.99999998,0,0,-0.99999998,0,2.5e-4)"   />
<circle class="logo-fill" style="fill-opacity:1;stroke:none;stroke-width:76.747;stroke-linecap:butt;stroke-linejoin:round;stroke-dasharray:none;stroke-opacity:1" id="path91-7" cx="8775.0078" cy="-2364.3491" r="60.65081" transform="matrix(0.99999998,0,0,-0.99999998,0,2.5e-4)"   />
<circle class="logo-fill" style="fill-opacity:1;stroke:none;stroke-width:8.22505;stroke-linecap:butt;stroke-linejoin:round;stroke-dasharray:none;stroke-opacity:1" id="path91-7-7" cx="839.10004" cy="503.09998" r="6.5" transform="matrix(9.9999998,0,0,-9.9999998,0,10240)"   />
<circle class="logo-fill" style="fill-opacity:1;stroke:none;stroke-width:8.22504;stroke-linecap:butt;stroke-linejoin:round;stroke-dasharray:none;stroke-opacity:1" id="path91-7-4" cx="868.948" cy="503.09998" r="6.5" transform="matrix(9.9999998,0,0,-9.9999998,0,10240)"   />
<circle class="logo-fill" style="fill-opacity:1;stroke:none;stroke-width:8.22504;stroke-linecap:butt;stroke-linejoin:round;stroke-dasharray:none;stroke-opacity:1" id="path91-7-1" cx="898.38495" cy="503.09998" r="6.5" transform="matrix(9.9999998,0,0,-9.9999998,0,10240)"   />
<circle class="logo-fill" style="fill-opacity:1;stroke:none;stroke-width:8.22504;stroke-linecap:butt;stroke-linejoin:round;stroke-dasharray:none;stroke-opacity:1" id="path91-7-0" cx="926.43365" cy="503.09998" r="6.5" transform="matrix(9.9999998,0,0,-9.9999998,0,10240)"   />
<circle class="logo-fill" style="fill-opacity:1;stroke:none;stroke-width:8.22504;stroke-linecap:butt;stroke-linejoin:round;stroke-dasharray:none;stroke-opacity:1" id="path91-7-01" cx="868.9483" cy="529.20337" r="6.5" transform="matrix(9.9999998,0,0,-9.9999998,0,10240)"   />
<circle class="logo-fill" style="fill-opacity:1;stroke:none;stroke-width:8.22504;stroke-linecap:butt;stroke-linejoin:round;stroke-dasharray:none;stroke-opacity:1" id="path91-7-8" cx="898.38501" cy="529.203" r="6.5" transform="matrix(9.9999998,0,0,-9.9999998,0,10240)"   />
<circle class="logo-fill" style="fill-opacity:1;stroke:none;stroke-width:8.22504;stroke-linecap:butt;stroke-linejoin:round;stroke-dasharray:none;stroke-opacity:1" id="path91-7-6" cx="926.43402" cy="529.203" r="6.5" transform="matrix(9.9999998,0,0,-9.9999998,0,10240)"   />
<circle class="logo-fill" style="fill-opacity:1;stroke:none;stroke-width:7.6747;stroke-linecap:butt;stroke-linejoin:round;stroke-dasharray:none;stroke-opacity:1" id="path91-7-19" cx="802.36505" cy="592.0899" r="6.0650811" transform="matrix(9.9999998,0,0,-9.9999998,0,10240)"   />
<circle class="logo-fill" style="fill-opacity:1;stroke:none;stroke-width:7.6747;stroke-linecap:butt;stroke-linejoin:round;stroke-dasharray:none;stroke-opacity:1" id="path91-7-5" cx="802.36505" cy="623.05157" r="6.0650811" transform="matrix(9.9999998,0,0,-9.9999998,0,10240)"   />
<circle class="logo-fill" style="fill-opacity:1;stroke:none;stroke-width:7.6747;stroke-linecap:butt;stroke-linejoin:round;stroke-dasharray:none;stroke-opacity:1" id="path91-7-75" cx="802.36505" cy="653.97211" r="6.0650811" transform="matrix(9.9999998,0,0,-9.9999998,0,10240)"   />
<circle class="logo-fill" style="fill-opacity:1;stroke:none;stroke-width:7.6747;stroke-linecap:butt;stroke-linejoin:round;stroke-dasharray:none;stroke-opacity:1" id="path91-7-04" cx="802.36505" cy="683.31506" r="6.0650811" transform="matrix(9.9999998,0,0,-9.9999998,0,10240)"   />
<circle class="logo-fill" style="fill-opacity:1;stroke:none;stroke-width:7.6747;stroke-linecap:butt;stroke-linejoin:round;stroke-dasharray:none;stroke-opacity:1" id="path91-7-69" cx="776.06506" cy="653.97174" r="6.0650811" transform="matrix(9.9999998,0,0,-9.9999998,0,10240)"   />
<circle class="logo-fill" style="fill-opacity:1;stroke:none;stroke-width:7.6747;stroke-linecap:butt;stroke-linejoin:round;stroke-dasharray:none;stroke-opacity:1" id="path91-7-2" cx="776.06506" cy="683.31506" r="6.0650811" transform="matrix(9.9999998,0,0,-9.9999998,0,10240)"   />
<rect class="logo-fill" style="fill-opacity:1" id="rect91" width="11.999333" height="11.999339" x="833.10034" y="523.20331" transform="matrix(9.9999998,0,0,-9.9999998,0,10240)"   />
<rect class="logo-fill" style="fill-opacity:1" id="rect91-6" width="119.99333" height="119.99339" x="1550.0034" y="-5269.9966" transform="scale(1,-1)"   />
<rect class="logo-fill" style="fill-opacity:1" id="rect91-0" width="119.99333" height="119.99339" x="1855.0033" y="-5269.9966" transform="scale(1,-1)"   />
<rect class="logo-fill" style="fill-opacity:1" id="rect91-3" width="119.99333" height="119.99339" x="1550.0033" y="-5014.9966" transform="scale(1,-1)"   />
<rect class="logo-fill" style="fill-opacity:1" id="rect91-9" width="119.99333" height="119.99339" x="1855.0033" y="-5014.9966" transform="scale(1,-1)"   />
<circle class="logo-fill" style="display:inline;fill-opacity:1;stroke:none;stroke-width:7.6747;stroke-linecap:butt;stroke-linejoin:round;stroke-dasharray:none;stroke-opacity:1" id="path91-7-19-2-3-0" cx="223.56508" cy="591.66522" r="6.0650811" transform="matrix(9.9999998,0,0,-9.9999998,0,10240)"   />
<circle class="logo-fill" style="display:inline;fill-opacity:1;stroke:none;stroke-width:7.6747;stroke-linecap:butt;stroke-linejoin:round;stroke-dasharray:none;stroke-opacity:1" id="path91-7-19-2-3-2" cx="223.56508" cy="623.05548" r="6.0650811" transform="matrix(9.9999998,0,0,-9.9999998,0,10240)"   />
<circle class="logo-fill" style="display:inline;fill-opacity:1;stroke:none;stroke-width:7.6747;stroke-linecap:butt;stroke-linejoin:round;stroke-dasharray:none;stroke-opacity:1" id="path91-7-19-2-3-02" cx="223.56508" cy="653.76501" r="6.0650811" transform="matrix(9.9999998,0,0,-9.9999998,0,10240)"   />
<circle class="logo-fill" style="display:inline;fill-opacity:1;stroke:none;stroke-width:7.6747;stroke-linecap:butt;stroke-linejoin:round;stroke-dasharray:none;stroke-opacity:1" id="path91-7-19-2-3-73" cx="223.56508" cy="683.06506" r="6.0650811" transform="matrix(9.9999998,0,0,-9.9999998,0,10240)"   />
<circle class="logo-fill" style="display:inline;fill-opacity:1;stroke:none;stroke-width:7.6747;stroke-linecap:butt;stroke-linejoin:round;stroke-dasharray:none;stroke-opacity:1" id="path91-7-19-2-3-74" cx="249.56508" cy="653.76508" r="6.0650811" transform="matrix(9.9999998,0,0,-9.9999998,0,10240)"   />
<circle class="logo-fill" style="display:inline;fill-opacity:1;stroke:none;stroke-width:7.6747;stroke-linecap:butt;stroke-linejoin:round;stroke-dasharray:none;stroke-opacity:1" id="path91-7-19-2-3-16" cx="249.56508" cy="683.06506" r="6.0650811" transform="matrix(9.9999998,0,0,-9.9999998,0,10240)"   />
<circle class="logo-fill" style="display:inline;fill-opacity:1;stroke:none;stroke-width:7.6747;stroke-linecap:butt;stroke-linejoin:round;stroke-dasharray:none;stroke-opacity:1" id="path91-7-19-2-3" cx="223.56508" cy="341.06509" r="6.0650811" transform="matrix(9.9999998,0,0,-9.9999998,0,10240)"   />
<circle class="logo-fill" style="display:inline;fill-opacity:1;stroke:none;stroke-width:7.6747;stroke-linecap:butt;stroke-linejoin:round;stroke-dasharray:none;stroke-opacity:1" id="path91-7-19-2-3-7" cx="223.56508" cy="370.56509" r="6.0650811" transform="matrix(9.9999998,0,0,-9.9999998,0,10240)"   />
<circle class="logo-fill" style="display:inline;fill-opacity:1;stroke:none;stroke-width:7.6747;stroke-linecap:butt;stroke-linejoin:round;stroke-dasharray:none;stroke-opacity:1" id="path91-7-19-2-3-5" cx="223.56508" cy="402.53931" r="6.0650811" transform="matrix(9.9999998,0,0,-9.9999998,0,10240)"   />
<circle class="logo-fill" style="display:inline;fill-opacity:1;stroke:none;stroke-width:7.6747;stroke-linecap:butt;stroke-linejoin:round;stroke-dasharray:none;stroke-opacity:1" id="path91-7-19-2-3-4" cx="223.56508" cy="434.76501" r="6.0650811" transform="matrix(9.9999998,0,0,-9.9999998,0,10240)"   />
<circle class="logo-fill" style="display:inline;fill-opacity:1;stroke:none;stroke-width:7.6747;stroke-linecap:butt;stroke-linejoin:round;stroke-dasharray:none;stroke-opacity:1" id="path91-7-19-2-3-59" cx="249.56508" cy="341.06509" r="6.0650811" transform="matrix(9.9999998,0,0,-9.9999998,0,10240)"   />
<circle class="logo-fill" style="display:inline;fill-opacity:1;stroke:none;stroke-width:7.6747;stroke-linecap:butt;stroke-linejoin:round;stroke-dasharray:none;stroke-opacity:1" id="path91-7-19-2-3-1" cx="249.56508" cy="370.56509" r="6.0650811" transform="matrix(9.9999998,0,0,-9.9999998,0,10240)"   />
<circle class="logo-fill" style="display:inline;fill-opacity:1;stroke:none;stroke-width:8.85775;stroke-linecap:butt;stroke-linejoin:round;stroke-dasharray:none;stroke-opacity:1" id="path91-7-19-5-2" cx="465.88116" cy="316.6539" r="7" transform="matrix(9.9999998,0,0,-9.9999998,0,10240)"   />
<circle class="logo-fill" style="display:inline;fill-opacity:1;stroke:none;stroke-width:8.85774;stroke-linecap:butt;stroke-linejoin:round;stroke-dasharray:none;stroke-opacity:1" id="path91-7-19-5-3" cx="513.44446" cy="306.53992" r="7" transform="matrix(9.9999998,0,0,-9.9999998,0,10240)"   />
<circle class="logo-fill" style="display:inline;fill-opacity:1;stroke:none;stroke-width:8.85774;stroke-linecap:butt;stroke-linejoin:round;stroke-dasharray:none;stroke-opacity:1" id="path91-7-19-5-8" cx="560.33173" cy="316.86206" r="7" transform="matrix(9.9999998,0,0,-9.9999998,0,10240)"   />
<circle class="logo-fill" style="display:inline;fill-opacity:1;stroke:none;stroke-width:8.85774;stroke-linecap:butt;stroke-linejoin:round;stroke-dasharray:none;stroke-opacity:1" id="path91-7-19-5-9" cx="466.24896" cy="709.38385" r="7" transform="matrix(9.9999998,0,0,-9.9999998,0,10240)"   />
<circle class="logo-fill" style="display:inline;fill-opacity:1;stroke:none;stroke-width:8.85774;stroke-linecap:butt;stroke-linejoin:round;stroke-dasharray:none;stroke-opacity:1" id="path91-7-19-5-9-6" cx="513.30292" cy="713.78424" r="7" transform="matrix(9.9999998,0,0,-9.9999998,0,10240)"   />
<circle class="logo-fill" style="display:inline;fill-opacity:1;stroke:none;stroke-width:8.85774;stroke-linecap:butt;stroke-linejoin:round;stroke-dasharray:none;stroke-opacity:1" id="path91-7-19-5-9-0" cx="559.96368" cy="709.91699" r="7" transform="matrix(9.9999998,0,0,-9.9999998,0,10240)"   />
<circle class="logo-fill" style="display:inline;fill-opacity:1;stroke:none;stroke-width:7.6747;stroke-linecap:butt;stroke-linejoin:round;stroke-dasharray:none;stroke-opacity:1" id="path91-7-19-9" cx="802.26013" cy="340.29507" r="6.0650811" transform="matrix(9.9999998,0,0,-9.9999998,0,10240)"   />
<circle class="logo-fill" style="display:inline;fill-opacity:1;stroke:none;stroke-width:7.6747;stroke-linecap:butt;stroke-linejoin:round;stroke-dasharray:none;stroke-opacity:1" id="path91-7-19-2" cx="802.0672" cy="370.38309" r="6.0650811" transform="matrix(9.9999998,0,0,-9.9999998,0,10240)"   />
<circle class="logo-fill" style="display:inline;fill-opacity:1;stroke:none;stroke-width:7.6747;stroke-linecap:butt;stroke-linejoin:round;stroke-dasharray:none;stroke-opacity:1" id="path91-7-19-3" cx="801.69788" cy="402.84412" r="6.0650811" transform="matrix(9.9999998,0,0,-9.9999998,0,10240)"   />
<circle class="logo-fill" style="display:inline;fill-opacity:1;stroke:none;stroke-width:7.6747;stroke-linecap:butt;stroke-linejoin:round;stroke-dasharray:none;stroke-opacity:1" id="path91-7-19-90" cx="802.26636" cy="434.91885" r="6.0650811" transform="matrix(9.9999998,0,0,-9.9999998,0,10240)"   />
<circle class="logo-fill" style="display:inline;fill-opacity:1;stroke:none;stroke-width:7.6747;stroke-linecap:butt;stroke-linejoin:round;stroke-dasharray:none;stroke-opacity:1" id="path91-7-19-96" cx="775.80609" cy="370.38358" r="6.0650811" transform="matrix(9.9999998,0,0,-9.9999998,0,10240)"   />
<circle class="logo-fill" style="display:inline;fill-opacity:1;stroke:none;stroke-width:7.6747;stroke-linecap:butt;stroke-linejoin:round;stroke-dasharray:none;stroke-opacity:1" id="path91-7-19-5" cx="775.80585" cy="340.29535" r="6.0650811" transform="matrix(9.9999998,0,0,-9.9999998,0,10240)"   />
</g>
</svg>